<?xml version="1.0" encoding="utf-8" standalone="no"?>
<!DOCTYPE svg PUBLIC "-//W3C//DTD SVG 1.1//EN"
  "http://www.w3.org/Graphics/SVG/1.1/DTD/svg11.dtd">
<svg xmlns:xlink="http://www.w3.org/1999/xlink" width="460.8pt" height="345.6pt" viewBox="0 0 460.8 345.6" xmlns="http://www.w3.org/2000/svg" version="1.1">
 <metadata>
  <rdf:RDF xmlns:dc="http://purl.org/dc/elements/1.1/" xmlns:cc="http://creativecommons.org/ns#" xmlns:rdf="http://www.w3.org/1999/02/22-rdf-syntax-ns#">
   <cc:Work>
    <dc:type rdf:resource="http://purl.org/dc/dcmitype/StillImage"/>
    <dc:date>2024-03-16T19:29:58.799077</dc:date>
    <dc:format>image/svg+xml</dc:format>
    <dc:creator>
     <cc:Agent>
      <dc:title>Matplotlib v3.8.3, https://matplotlib.org/</dc:title>
     </cc:Agent>
    </dc:creator>
   </cc:Work>
  </rdf:RDF>
 </metadata>
 <defs>
  <style type="text/css">*{stroke-linejoin: round; stroke-linecap: butt}</style>
 </defs>
 <g id="figure_1">
  <g id="patch_1">
   <path d="M 0 345.6 
L 460.8 345.6 
L 460.8 0 
L 0 0 
z
" style="fill: #ffffff"/>
  </g>
  <g id="axes_1">
   <g id="patch_2">
    <path d="M 57.6 307.584 
L 414.72 307.584 
L 414.72 41.472 
L 57.6 41.472 
z
" style="fill: #ffffff"/>
   </g>
   <g id="PathCollection_1">
    <defs>
     <path id="m101a8ac8a1" d="M 0 3 
C 0.795609 3 1.55874 2.683901 2.12132 2.12132 
C 2.683901 1.55874 3 0.795609 3 0 
C 3 -0.795609 2.683901 -1.55874 2.12132 -2.12132 
C 1.55874 -2.683901 0.795609 -3 0 -3 
C -0.795609 -3 -1.55874 -2.683901 -2.12132 -2.12132 
C -2.683901 -1.55874 -3 -0.795609 -3 0 
C -3 0.795609 -2.683901 1.55874 -2.12132 2.12132 
C -1.55874 2.683901 -0.795609 3 0 3 
z
" style="stroke: #1f77b4"/>
    </defs>
    <g clip-path="url(#p83c9f54ad0)">
     <use xlink:href="#m101a8ac8a1" x="235.742315" y="176.241434" style="fill: #1f77b4; stroke: #1f77b4"/>
     <use xlink:href="#m101a8ac8a1" x="267.977175" y="185.706443" style="fill: #1f77b4; stroke: #1f77b4"/>
     <use xlink:href="#m101a8ac8a1" x="289.977695" y="211.096396" style="fill: #1f77b4; stroke: #1f77b4"/>
     <use xlink:href="#m101a8ac8a1" x="294.758864" y="244.350163" style="fill: #1f77b4; stroke: #1f77b4"/>
     <use xlink:href="#m101a8ac8a1" x="280.802697" y="274.909908" style="fill: #1f77b4; stroke: #1f77b4"/>
     <use xlink:href="#m101a8ac8a1" x="252.540176" y="293.073127" style="fill: #1f77b4; stroke: #1f77b4"/>
     <use xlink:href="#m101a8ac8a1" x="218.944453" y="293.073127" style="fill: #1f77b4; stroke: #1f77b4"/>
     <use xlink:href="#m101a8ac8a1" x="190.681933" y="274.909908" style="fill: #1f77b4; stroke: #1f77b4"/>
     <use xlink:href="#m101a8ac8a1" x="176.725765" y="244.350163" style="fill: #1f77b4; stroke: #1f77b4"/>
     <use xlink:href="#m101a8ac8a1" x="181.506935" y="211.096396" style="fill: #1f77b4; stroke: #1f77b4"/>
     <use xlink:href="#m101a8ac8a1" x="203.507455" y="185.706443" style="fill: #1f77b4; stroke: #1f77b4"/>
     <use xlink:href="#m101a8ac8a1" x="235.742315" y="176.241434" style="fill: #1f77b4; stroke: #1f77b4"/>
     <use xlink:href="#m101a8ac8a1" x="267.977175" y="166.776425" style="fill: #1f77b4; stroke: #1f77b4"/>
     <use xlink:href="#m101a8ac8a1" x="289.977695" y="141.386472" style="fill: #1f77b4; stroke: #1f77b4"/>
     <use xlink:href="#m101a8ac8a1" x="294.758864" y="108.132705" style="fill: #1f77b4; stroke: #1f77b4"/>
     <use xlink:href="#m101a8ac8a1" x="280.802697" y="77.572961" style="fill: #1f77b4; stroke: #1f77b4"/>
     <use xlink:href="#m101a8ac8a1" x="252.540176" y="59.409742" style="fill: #1f77b4; stroke: #1f77b4"/>
     <use xlink:href="#m101a8ac8a1" x="218.944453" y="59.409742" style="fill: #1f77b4; stroke: #1f77b4"/>
     <use xlink:href="#m101a8ac8a1" x="190.681933" y="77.572961" style="fill: #1f77b4; stroke: #1f77b4"/>
     <use xlink:href="#m101a8ac8a1" x="176.725765" y="108.132705" style="fill: #1f77b4; stroke: #1f77b4"/>
     <use xlink:href="#m101a8ac8a1" x="181.506935" y="141.386472" style="fill: #1f77b4; stroke: #1f77b4"/>
     <use xlink:href="#m101a8ac8a1" x="203.507455" y="166.776425" style="fill: #1f77b4; stroke: #1f77b4"/>
     <use xlink:href="#m101a8ac8a1" x="235.742315" y="176.241434" style="fill: #1f77b4; stroke: #1f77b4"/>
    </g>
   </g>
   <g id="matplotlib.axis_1">
    <g id="xtick_1">
     <g id="line2d_1">
      <path d="M 103.245803 307.584 
L 103.245803 41.472 
" clip-path="url(#p83c9f54ad0)" style="fill: none; stroke: #b0b0b0; stroke-linecap: square"/>
     </g>
     <g id="line2d_2">
      <defs>
       <path id="m7454d865e0" d="M 0 0 
L 0 3.5 
" style="stroke: #000000; stroke-width: 0.8"/>
      </defs>
      <g>
       <use xlink:href="#m7454d865e0" x="103.245803" y="307.584" style="stroke: #000000; stroke-width: 0.8"/>
      </g>
     </g>
     <g id="text_1">
      <!-- −20 -->
      <g transform="translate(92.693459 322.182437) scale(0.1 -0.1)">
       <defs>
        <path id="DejaVuSans-2212" d="M 678 2272 
L 4684 2272 
L 4684 1741 
L 678 1741 
L 678 2272 
z
" transform="scale(0.015625)"/>
        <path id="DejaVuSans-32" d="M 1228 531 
L 3431 531 
L 3431 0 
L 469 0 
L 469 531 
Q 828 903 1448 1529 
Q 2069 2156 2228 2338 
Q 2531 2678 2651 2914 
Q 2772 3150 2772 3378 
Q 2772 3750 2511 3984 
Q 2250 4219 1831 4219 
Q 1534 4219 1204 4116 
Q 875 4013 500 3803 
L 500 4441 
Q 881 4594 1212 4672 
Q 1544 4750 1819 4750 
Q 2544 4750 2975 4387 
Q 3406 4025 3406 3419 
Q 3406 3131 3298 2873 
Q 3191 2616 2906 2266 
Q 2828 2175 2409 1742 
Q 1991 1309 1228 531 
z
" transform="scale(0.015625)"/>
        <path id="DejaVuSans-30" d="M 2034 4250 
Q 1547 4250 1301 3770 
Q 1056 3291 1056 2328 
Q 1056 1369 1301 889 
Q 1547 409 2034 409 
Q 2525 409 2770 889 
Q 3016 1369 3016 2328 
Q 3016 3291 2770 3770 
Q 2525 4250 2034 4250 
z
M 2034 4750 
Q 2819 4750 3233 4129 
Q 3647 3509 3647 2328 
Q 3647 1150 3233 529 
Q 2819 -91 2034 -91 
Q 1250 -91 836 529 
Q 422 1150 422 2328 
Q 422 3509 836 4129 
Q 1250 4750 2034 4750 
z
" transform="scale(0.015625)"/>
       </defs>
       <use xlink:href="#DejaVuSans-2212"/>
       <use xlink:href="#DejaVuSans-32" x="83.789062"/>
       <use xlink:href="#DejaVuSans-30" x="147.412109"/>
      </g>
     </g>
    </g>
    <g id="xtick_2">
     <g id="line2d_3">
      <path d="M 169.494059 307.584 
L 169.494059 41.472 
" clip-path="url(#p83c9f54ad0)" style="fill: none; stroke: #b0b0b0; stroke-linecap: square"/>
     </g>
     <g id="line2d_4">
      <g>
       <use xlink:href="#m7454d865e0" x="169.494059" y="307.584" style="stroke: #000000; stroke-width: 0.8"/>
      </g>
     </g>
     <g id="text_2">
      <!-- −10 -->
      <g transform="translate(158.941715 322.182437) scale(0.1 -0.1)">
       <defs>
        <path id="DejaVuSans-31" d="M 794 531 
L 1825 531 
L 1825 4091 
L 703 3866 
L 703 4441 
L 1819 4666 
L 2450 4666 
L 2450 531 
L 3481 531 
L 3481 0 
L 794 0 
L 794 531 
z
" transform="scale(0.015625)"/>
       </defs>
       <use xlink:href="#DejaVuSans-2212"/>
       <use xlink:href="#DejaVuSans-31" x="83.789062"/>
       <use xlink:href="#DejaVuSans-30" x="147.412109"/>
      </g>
     </g>
    </g>
    <g id="xtick_3">
     <g id="line2d_5">
      <path d="M 235.742315 307.584 
L 235.742315 41.472 
" clip-path="url(#p83c9f54ad0)" style="fill: none; stroke: #b0b0b0; stroke-linecap: square"/>
     </g>
     <g id="line2d_6">
      <g>
       <use xlink:href="#m7454d865e0" x="235.742315" y="307.584" style="stroke: #000000; stroke-width: 0.8"/>
      </g>
     </g>
     <g id="text_3">
      <!-- 0 -->
      <g transform="translate(232.561065 322.182437) scale(0.1 -0.1)">
       <use xlink:href="#DejaVuSans-30"/>
      </g>
     </g>
    </g>
    <g id="xtick_4">
     <g id="line2d_7">
      <path d="M 301.990571 307.584 
L 301.990571 41.472 
" clip-path="url(#p83c9f54ad0)" style="fill: none; stroke: #b0b0b0; stroke-linecap: square"/>
     </g>
     <g id="line2d_8">
      <g>
       <use xlink:href="#m7454d865e0" x="301.990571" y="307.584" style="stroke: #000000; stroke-width: 0.8"/>
      </g>
     </g>
     <g id="text_4">
      <!-- 10 -->
      <g transform="translate(295.628071 322.182437) scale(0.1 -0.1)">
       <use xlink:href="#DejaVuSans-31"/>
       <use xlink:href="#DejaVuSans-30" x="63.623047"/>
      </g>
     </g>
    </g>
    <g id="xtick_5">
     <g id="line2d_9">
      <path d="M 368.238826 307.584 
L 368.238826 41.472 
" clip-path="url(#p83c9f54ad0)" style="fill: none; stroke: #b0b0b0; stroke-linecap: square"/>
     </g>
     <g id="line2d_10">
      <g>
       <use xlink:href="#m7454d865e0" x="368.238826" y="307.584" style="stroke: #000000; stroke-width: 0.8"/>
      </g>
     </g>
     <g id="text_5">
      <!-- 20 -->
      <g transform="translate(361.876326 322.182437) scale(0.1 -0.1)">
       <use xlink:href="#DejaVuSans-32"/>
       <use xlink:href="#DejaVuSans-30" x="63.623047"/>
      </g>
     </g>
    </g>
    <g id="text_6">
     <!-- X/L -->
     <g transform="translate(228.264688 335.860562) scale(0.1 -0.1)">
      <defs>
       <path id="DejaVuSans-58" d="M 403 4666 
L 1081 4666 
L 2241 2931 
L 3406 4666 
L 4084 4666 
L 2584 2425 
L 4184 0 
L 3506 0 
L 2194 1984 
L 872 0 
L 191 0 
L 1856 2491 
L 403 4666 
z
" transform="scale(0.015625)"/>
       <path id="DejaVuSans-2f" d="M 1625 4666 
L 2156 4666 
L 531 -594 
L 0 -594 
L 1625 4666 
z
" transform="scale(0.015625)"/>
       <path id="DejaVuSans-4c" d="M 628 4666 
L 1259 4666 
L 1259 531 
L 3531 531 
L 3531 0 
L 628 0 
L 628 4666 
z
" transform="scale(0.015625)"/>
      </defs>
      <use xlink:href="#DejaVuSans-58"/>
      <use xlink:href="#DejaVuSans-2f" x="68.505859"/>
      <use xlink:href="#DejaVuSans-4c" x="102.197266"/>
     </g>
    </g>
   </g>
   <g id="matplotlib.axis_2">
    <g id="ytick_1">
     <g id="line2d_11">
      <path d="M 57.6 43.744923 
L 414.72 43.744923 
" clip-path="url(#p83c9f54ad0)" style="fill: none; stroke: #b0b0b0; stroke-linecap: square"/>
     </g>
     <g id="line2d_12">
      <defs>
       <path id="mb389b0fa6b" d="M 0 0 
L -3.5 0 
" style="stroke: #000000; stroke-width: 0.8"/>
      </defs>
      <g>
       <use xlink:href="#mb389b0fa6b" x="57.6" y="43.744923" style="stroke: #000000; stroke-width: 0.8"/>
      </g>
     </g>
     <g id="text_7">
      <!-- −20 -->
      <g transform="translate(29.495313 47.544141) scale(0.1 -0.1)">
       <use xlink:href="#DejaVuSans-2212"/>
       <use xlink:href="#DejaVuSans-32" x="83.789062"/>
       <use xlink:href="#DejaVuSans-30" x="147.412109"/>
      </g>
     </g>
    </g>
    <g id="ytick_2">
     <g id="line2d_13">
      <path d="M 57.6 76.869051 
L 414.72 76.869051 
" clip-path="url(#p83c9f54ad0)" style="fill: none; stroke: #b0b0b0; stroke-linecap: square"/>
     </g>
     <g id="line2d_14">
      <g>
       <use xlink:href="#mb389b0fa6b" x="57.6" y="76.869051" style="stroke: #000000; stroke-width: 0.8"/>
      </g>
     </g>
     <g id="text_8">
      <!-- −15 -->
      <g transform="translate(29.495313 80.668269) scale(0.1 -0.1)">
       <defs>
        <path id="DejaVuSans-35" d="M 691 4666 
L 3169 4666 
L 3169 4134 
L 1269 4134 
L 1269 2991 
Q 1406 3038 1543 3061 
Q 1681 3084 1819 3084 
Q 2600 3084 3056 2656 
Q 3513 2228 3513 1497 
Q 3513 744 3044 326 
Q 2575 -91 1722 -91 
Q 1428 -91 1123 -41 
Q 819 9 494 109 
L 494 744 
Q 775 591 1075 516 
Q 1375 441 1709 441 
Q 2250 441 2565 725 
Q 2881 1009 2881 1497 
Q 2881 1984 2565 2268 
Q 2250 2553 1709 2553 
Q 1456 2553 1204 2497 
Q 953 2441 691 2322 
L 691 4666 
z
" transform="scale(0.015625)"/>
       </defs>
       <use xlink:href="#DejaVuSans-2212"/>
       <use xlink:href="#DejaVuSans-31" x="83.789062"/>
       <use xlink:href="#DejaVuSans-35" x="147.412109"/>
      </g>
     </g>
    </g>
    <g id="ytick_3">
     <g id="line2d_15">
      <path d="M 57.6 109.993178 
L 414.72 109.993178 
" clip-path="url(#p83c9f54ad0)" style="fill: none; stroke: #b0b0b0; stroke-linecap: square"/>
     </g>
     <g id="line2d_16">
      <g>
       <use xlink:href="#mb389b0fa6b" x="57.6" y="109.993178" style="stroke: #000000; stroke-width: 0.8"/>
      </g>
     </g>
     <g id="text_9">
      <!-- −10 -->
      <g transform="translate(29.495313 113.792397) scale(0.1 -0.1)">
       <use xlink:href="#DejaVuSans-2212"/>
       <use xlink:href="#DejaVuSans-31" x="83.789062"/>
       <use xlink:href="#DejaVuSans-30" x="147.412109"/>
      </g>
     </g>
    </g>
    <g id="ytick_4">
     <g id="line2d_17">
      <path d="M 57.6 143.117306 
L 414.72 143.117306 
" clip-path="url(#p83c9f54ad0)" style="fill: none; stroke: #b0b0b0; stroke-linecap: square"/>
     </g>
     <g id="line2d_18">
      <g>
       <use xlink:href="#mb389b0fa6b" x="57.6" y="143.117306" style="stroke: #000000; stroke-width: 0.8"/>
      </g>
     </g>
     <g id="text_10">
      <!-- −5 -->
      <g transform="translate(35.857813 146.916525) scale(0.1 -0.1)">
       <use xlink:href="#DejaVuSans-2212"/>
       <use xlink:href="#DejaVuSans-35" x="83.789062"/>
      </g>
     </g>
    </g>
    <g id="ytick_5">
     <g id="line2d_19">
      <path d="M 57.6 176.241434 
L 414.72 176.241434 
" clip-path="url(#p83c9f54ad0)" style="fill: none; stroke: #b0b0b0; stroke-linecap: square"/>
     </g>
     <g id="line2d_20">
      <g>
       <use xlink:href="#mb389b0fa6b" x="57.6" y="176.241434" style="stroke: #000000; stroke-width: 0.8"/>
      </g>
     </g>
     <g id="text_11">
      <!-- 0 -->
      <g transform="translate(44.2375 180.040653) scale(0.1 -0.1)">
       <use xlink:href="#DejaVuSans-30"/>
      </g>
     </g>
    </g>
    <g id="ytick_6">
     <g id="line2d_21">
      <path d="M 57.6 209.365562 
L 414.72 209.365562 
" clip-path="url(#p83c9f54ad0)" style="fill: none; stroke: #b0b0b0; stroke-linecap: square"/>
     </g>
     <g id="line2d_22">
      <g>
       <use xlink:href="#mb389b0fa6b" x="57.6" y="209.365562" style="stroke: #000000; stroke-width: 0.8"/>
      </g>
     </g>
     <g id="text_12">
      <!-- 5 -->
      <g transform="translate(44.2375 213.164781) scale(0.1 -0.1)">
       <use xlink:href="#DejaVuSans-35"/>
      </g>
     </g>
    </g>
    <g id="ytick_7">
     <g id="line2d_23">
      <path d="M 57.6 242.48969 
L 414.72 242.48969 
" clip-path="url(#p83c9f54ad0)" style="fill: none; stroke: #b0b0b0; stroke-linecap: square"/>
     </g>
     <g id="line2d_24">
      <g>
       <use xlink:href="#mb389b0fa6b" x="57.6" y="242.48969" style="stroke: #000000; stroke-width: 0.8"/>
      </g>
     </g>
     <g id="text_13">
      <!-- 10 -->
      <g transform="translate(37.875 246.288909) scale(0.1 -0.1)">
       <use xlink:href="#DejaVuSans-31"/>
       <use xlink:href="#DejaVuSans-30" x="63.623047"/>
      </g>
     </g>
    </g>
    <g id="ytick_8">
     <g id="line2d_25">
      <path d="M 57.6 275.613818 
L 414.72 275.613818 
" clip-path="url(#p83c9f54ad0)" style="fill: none; stroke: #b0b0b0; stroke-linecap: square"/>
     </g>
     <g id="line2d_26">
      <g>
       <use xlink:href="#mb389b0fa6b" x="57.6" y="275.613818" style="stroke: #000000; stroke-width: 0.8"/>
      </g>
     </g>
     <g id="text_14">
      <!-- 15 -->
      <g transform="translate(37.875 279.413037) scale(0.1 -0.1)">
       <use xlink:href="#DejaVuSans-31"/>
       <use xlink:href="#DejaVuSans-35" x="63.623047"/>
      </g>
     </g>
    </g>
    <g id="text_15">
     <!-- Y/L -->
     <g transform="translate(23.415625 182.052219) rotate(-90) scale(0.1 -0.1)">
      <defs>
       <path id="DejaVuSans-59" d="M -13 4666 
L 666 4666 
L 1959 2747 
L 3244 4666 
L 3922 4666 
L 2272 2222 
L 2272 0 
L 1638 0 
L 1638 2222 
L -13 4666 
z
" transform="scale(0.015625)"/>
      </defs>
      <use xlink:href="#DejaVuSans-59"/>
      <use xlink:href="#DejaVuSans-2f" x="61.083984"/>
      <use xlink:href="#DejaVuSans-4c" x="94.775391"/>
     </g>
    </g>
   </g>
   <g id="line2d_27">
    <path d="M 237.728633 176.23687 
L 241.640808 176.275033 
L 245.467217 176.666924 
L 249.207197 177.439522 
L 252.851303 178.534369 
L 256.428963 179.848336 
L 261.752906 182.035556 
L 265.270405 183.583125 
L 268.586869 185.320841 
L 270.091537 186.326328 
L 271.469882 187.450544 
L 273.936207 189.960697 
L 276.188199 192.69103 
L 279.38349 197.034615 
L 283.754832 202.959313 
L 287.282863 207.34575 
L 289.641259 210.276357 
L 292.913001 214.839762 
L 293.858987 216.38868 
L 294.665785 217.966749 
L 295.315476 219.581885 
L 295.81975 221.227571 
L 296.197546 222.894931 
L 296.625135 226.27382 
L 296.724714 229.69663 
L 296.53668 234.918699 
L 296.119073 240.226967 
L 295.603123 243.686849 
L 295.188729 245.332806 
L 294.634115 246.909884 
L 293.220339 249.908433 
L 290.736796 254.316552 
L 287.301482 260.369668 
L 285.713835 263.558648 
L 284.251805 266.857716 
L 280.113281 276.952507 
L 279.290128 278.499856 
L 278.373599 279.935034 
L 277.350477 281.237554 
L 276.218309 282.404912 
L 274.995993 283.454458 
L 272.342707 285.263491 
L 269.480205 286.77345 
L 264.935739 288.760501 
L 255.388176 292.637477 
L 252.115152 293.652309 
L 250.45233 293.979438 
L 247.085135 294.322151 
L 243.676105 294.360842 
L 238.497879 294.059585 
L 231.462284 293.525245 
L 226.085957 293.365462 
L 218.878507 293.298715 
L 215.322893 293.02878 
L 213.612123 292.749684 
L 211.966841 292.321937 
L 210.39553 291.733273 
L 208.892589 291.009808 
L 206.060337 289.246116 
L 203.415159 287.164277 
L 199.596831 283.719917 
L 190.546062 275.288077 
L 188.243727 272.594795 
L 187.248021 271.139811 
L 185.530474 268.055513 
L 184.090006 264.800797 
L 182.249419 259.718661 
L 179.814895 252.819313 
L 175.902042 242.428975 
L 174.987379 238.879324 
L 174.734782 237.097601 
L 174.648586 235.313903 
L 174.703049 233.534436 
L 175.155632 229.999304 
L 175.965855 226.504513 
L 177.531826 221.275863 
L 180.436729 212.476117 
L 181.925952 209.113604 
L 182.839483 207.543183 
L 184.968308 204.613849 
L 187.367279 201.868601 
L 191.280333 197.95181 
L 196.641252 192.70229 
L 205.921221 183.147934 
L 207.33526 181.926688 
L 208.806276 180.8325 
L 210.35092 179.89052 
L 211.958232 179.091992 
L 213.61384 178.418919 
L 217.03457 177.409955 
L 220.557431 176.750621 
L 225.977412 176.113924 
L 231.516344 175.672431 
L 235.190324 175.602166 
L 236.979729 175.73382 
L 238.728579 176.021582 
L 242.082723 176.940141 
L 246.978263 178.425787 
L 248.609193 178.768573 
L 250.227004 178.969723 
L 251.811948 179.00606 
L 253.341554 178.868283 
L 254.796968 178.556781 
L 256.170275 178.075883 
L 257.466255 177.438514 
L 258.698788 176.676788 
L 260.987415 174.845811 
L 263.096575 172.693439 
L 266.080057 169.062073 
L 270.235571 163.915076 
L 273.647864 160.003887 
L 283.390364 149.222383 
L 286.901934 144.84624 
L 289.25289 141.911386 
L 294.034697 136.289839 
L 295.02317 134.838654 
L 295.854522 133.348104 
L 296.516451 131.815777 
L 297.016847 130.252384 
L 297.366691 128.668369 
L 297.579237 127.070838 
L 297.658206 123.853543 
L 297.36922 120.620003 
L 296.801466 117.373589 
L 295.59548 112.470152 
L 294.758071 109.134792 
L 292.9228 100.610961 
L 291.91232 97.227386 
L 290.658945 93.915961 
L 289.157641 90.701429 
L 287.428936 87.591266 
L 285.505857 84.578202 
L 279.358051 75.67053 
L 277.476579 72.648218 
L 276.477253 71.228544 
L 275.39456 69.90362 
L 274.224658 68.684896 
L 272.973831 67.577224 
L 271.649209 66.582046 
L 268.818 64.897211 
L 265.801517 63.547875 
L 262.647518 62.453435 
L 259.390009 61.539831 
L 252.749407 59.794558 
L 251.122003 59.249934 
L 249.538922 58.598529 
L 246.532015 57.051538 
L 243.608573 55.47754 
L 242.135591 54.792182 
L 240.651117 54.232113 
L 239.161614 53.831116 
L 237.671688 53.609717 
L 236.184705 53.568 
L 234.703883 53.675537 
L 233.232111 53.910114 
L 230.319864 54.700068 
L 227.430936 55.807905 
L 223.099473 57.837789 
L 220.143842 59.21307 
L 217.079156 60.391189 
L 212.406153 62.180042 
L 209.308507 63.597566 
L 206.280231 65.251441 
L 203.347933 67.144037 
L 200.517483 69.250612 
L 197.77951 71.535383 
L 189.735763 78.6943 
L 186.817585 80.641098 
L 182.496819 83.380657 
L 181.192583 84.399734 
L 180.02002 85.508256 
L 179.013199 86.708701 
L 178.192987 87.998289 
L 177.562536 89.369373 
L 177.085334 90.8007 
L 176.729235 92.278631 
L 176.365071 95.33747 
L 176.317981 98.506837 
L 176.655508 103.405856 
L 177.012833 108.440189 
L 177.015713 113.565667 
L 177.109387 118.82973 
L 177.353972 122.404696 
L 177.805097 126.008152 
L 178.475619 129.619647 
L 179.346781 133.226769 
L 183.358479 147.529794 
L 184.011317 149.21008 
L 184.789756 150.826591 
L 185.687302 152.370855 
L 186.698905 153.834725 
L 187.813885 155.217224 
L 190.300279 157.758676 
L 193.061067 160.035872 
L 196.030389 162.097175 
L 200.739929 164.908489 
L 205.482767 167.782311 
L 211.614709 171.839381 
L 214.862827 173.49616 
L 216.550851 174.172257 
L 220.028691 175.208785 
L 223.602006 175.85886 
L 227.23642 176.179406 
L 230.904446 176.234469 
L 232.747816 176.206507 
L 232.747816 176.206507 
" clip-path="url(#p83c9f54ad0)" style="fill: none; stroke: #1f77b4; stroke-width: 1.5; stroke-linecap: square"/>
   </g>
   <g id="line2d_28">
    <defs>
     <path id="md1aef9c879" d="M 0 3 
C 0.795609 3 1.55874 2.683901 2.12132 2.12132 
C 2.683901 1.55874 3 0.795609 3 0 
C 3 -0.795609 2.683901 -1.55874 2.12132 -2.12132 
C 1.55874 -2.683901 0.795609 -3 0 -3 
C -0.795609 -3 -1.55874 -2.683901 -2.12132 -2.12132 
C -2.683901 -1.55874 -3 -0.795609 -3 0 
C -3 0.795609 -2.683901 1.55874 -2.12132 2.12132 
C -1.55874 2.683901 -0.795609 3 0 3 
z
" style="stroke: #ff0000"/>
    </defs>
    <g clip-path="url(#p83c9f54ad0)">
     <use xlink:href="#md1aef9c879" x="235.742315" y="176.241434" style="fill: #ff0000; stroke: #ff0000"/>
    </g>
   </g>
   <g id="line2d_29">
    <path d="M 235.742315 176.241434 
L 239.489843 176.359323 
L 243.222553 176.712523 
L 246.925682 177.299638 
L 250.584587 178.118346 
L 254.184799 179.16541 
L 257.712082 180.436688 
L 261.152486 181.927154 
L 264.492407 183.630914 
L 267.718637 185.54123 
L 270.818419 187.650548 
L 273.779494 189.950527 
L 276.590153 192.432071 
L 279.239282 195.085369 
L 281.716404 197.899926 
L 284.011725 200.864614 
L 286.116166 203.967709 
L 288.021407 207.196939 
L 289.719913 210.539535 
L 291.204967 213.982278 
L 292.470698 217.511555 
L 293.512099 221.113409 
L 294.325053 224.773597 
L 294.906345 228.477645 
L 295.253675 232.210905 
L 295.365671 235.958615 
L 295.24189 239.705953 
L 294.882821 243.438103 
L 294.289884 247.140304 
L 293.465424 250.797917 
L 292.412701 254.396479 
L 291.135878 257.921758 
L 289.640005 261.359814 
L 287.930995 264.697052 
L 286.015609 267.920275 
L 283.901419 271.016736 
L 281.596787 273.974191 
L 279.110826 276.780945 
L 276.453367 279.425898 
L 273.634918 281.898592 
L 270.666624 284.189248 
L 267.560225 286.288808 
L 264.328003 288.188969 
L 260.982741 289.882217 
L 257.537666 291.361856 
L 254.006404 292.622036 
L 250.402916 293.657772 
L 246.741455 294.46497 
L 243.036498 295.040437 
L 239.302696 295.381897 
L 235.554815 295.488 
L 231.807676 295.358327 
L 228.076095 294.99339 
L 224.374831 294.394633 
L 220.718518 293.564422 
L 217.121617 292.506043 
L 213.59835 291.223678 
L 210.16265 289.7224 
L 206.828103 288.008146 
L 203.607896 286.087694 
L 200.514763 283.968638 
L 197.560935 281.659359 
L 194.758094 279.168987 
L 192.117322 276.507372 
L 189.649063 273.685039 
L 187.363077 270.713147 
L 185.268404 267.60345 
L 183.373328 264.368245 
L 181.685342 261.020324 
L 180.211121 257.572928 
L 178.956496 254.039688 
L 177.926426 250.434576 
L 177.124987 246.77185 
L 176.555347 243.065993 
L 176.219758 239.331659 
L 176.119548 235.583616 
L 176.255113 231.836685 
L 176.625917 228.105683 
L 177.230493 224.405364 
L 178.066451 220.750362 
L 179.130485 217.155129 
L 180.418388 213.633882 
L 181.925066 210.200547 
L 183.644562 206.8687 
L 185.570075 203.651517 
L 187.693991 200.561719 
L 190.007912 197.611526 
L 192.502688 194.812604 
L 195.168452 192.176021 
L 197.994663 189.712203 
L 200.970145 187.430892 
L 204.083132 185.341112 
L 207.321313 183.451125 
L 210.671884 181.768405 
L 214.121594 180.299607 
L 217.656802 179.050538 
L 221.263529 178.026139 
L 224.927511 177.23046 
L 228.634259 176.666647 
L 232.369116 176.33693 
L 236.117312 176.240255 
L 239.864026 176.098799 
L 243.59444 175.722129 
L 247.293803 175.111735 
L 250.947486 174.270031 
L 254.541042 173.200345 
L 258.060259 171.906907 
L 261.491221 170.394832 
L 264.82036 168.6701 
L 268.034512 166.739531 
L 271.120966 164.610758 
L 274.067517 162.292201 
L 276.862513 159.793028 
L 279.494902 157.123122 
L 281.954273 154.29304 
L 284.230902 151.313975 
L 286.315785 148.197706 
L 288.200678 144.956557 
L 289.878127 141.603344 
L 291.3415 138.151329 
L 292.585008 134.614161 
L 293.603735 131.005828 
L 294.393652 127.3406 
L 294.951636 123.632969 
L 295.275479 119.897599 
L 295.363902 116.149259 
L 295.216555 112.402773 
L 294.83402 108.672955 
L 294.21781 104.974556 
L 293.370362 101.322201 
L 292.295027 97.730332 
L 290.996057 94.213153 
L 289.47859 90.784573 
L 287.748625 87.458149 
L 285.813004 84.247037 
L 283.679382 81.163934 
L 281.356194 78.221033 
L 278.85263 75.429969 
L 276.178587 72.801782 
L 273.344642 70.346864 
L 270.362001 68.074922 
L 267.242457 65.994942 
L 263.998349 64.115147 
L 260.642503 62.442972 
L 257.188191 60.98503 
L 253.649072 59.747085 
L 250.039142 58.734032 
L 246.372676 57.949879 
L 242.664173 57.397726 
L 238.928297 57.079756 
L 235.179823 56.997227 
L 231.433573 57.150465 
L 227.704362 57.538864 
L 224.006937 58.160889 
L 220.355918 59.014079 
L 216.765744 60.09506 
L 213.250612 61.399558 
L 209.824422 62.922415 
L 206.500723 64.657608 
L 203.292658 66.598275 
L 200.212914 68.736743 
L 197.273669 71.064555 
L 194.486546 73.572505 
L 191.862566 76.250677 
L 189.412107 79.088478 
L 187.144858 82.074688 
L 185.069785 85.197498 
L 183.195094 88.444559 
L 181.528198 91.80303 
L 180.075688 95.25963 
L 178.84331 98.800691 
L 177.835935 102.41221 
L 177.057548 106.079904 
L 176.511226 109.789271 
L 176.199131 113.525642 
L 176.122496 117.274241 
L 176.281624 121.020245 
L 176.675887 124.748841 
L 177.303724 128.445284 
L 178.162654 132.094956 
L 179.249279 135.683426 
L 180.559303 139.196503 
L 182.087545 142.620294 
L 183.827961 145.94126 
L 185.773671 149.14627 
L 187.916978 152.222648 
L 190.249409 155.158229 
L 192.761738 157.941405 
L 195.444032 160.56117 
L 198.285684 163.007165 
L 201.275455 165.269715 
L 204.401524 167.339876 
L 207.651528 169.209459 
L 211.012616 170.871072 
L 214.471496 172.318145 
L 218.01449 173.544954 
L 221.627588 174.546649 
L 225.296502 175.319268 
L 229.006723 175.859757 
L 232.74358 176.165976 
L 235.742315 176.241434 
L 235.742315 176.241434 
" clip-path="url(#p83c9f54ad0)" style="fill: none; stroke: #ff7f0e; stroke-width: 1.5; stroke-linecap: square"/>
   </g>
   <g id="line2d_30">
    <path d="M 297.475852 228.172749 
L 296.552684 228.083458 
L 296.074339 233.028997 
L 296.376474 234.722156 
L 296.997506 233.118289 
L 297.475852 228.172749 
L 297.014268 228.128103 
L 296.376474 234.722156 
L 296.074339 233.028997 
L 296.233787 231.380484 
L 297.156954 231.469775 
" clip-path="url(#p83c9f54ad0)" style="fill: none; stroke: #ff0000; stroke-width: 1.5; stroke-linecap: square"/>
   </g>
   <g id="line2d_31">
    <path d="M 255.459692 293.686744 
L 255.340562 292.766951 
L 250.4131 293.405143 
L 248.830177 294.07777 
L 250.532229 294.324936 
L 255.459692 293.686744 
L 255.400127 293.226848 
L 248.830177 294.07777 
L 250.4131 293.405143 
L 252.055587 293.192413 
L 252.174717 294.112206 
" clip-path="url(#p83c9f54ad0)" style="fill: none; stroke: #ff0000; stroke-width: 1.5; stroke-linecap: square"/>
   </g>
   <g id="line2d_32">
    <path d="M 183.555836 264.697679 
L 184.425458 264.375235 
L 182.69808 259.71655 
L 181.687477 258.324877 
L 181.828459 260.038994 
L 183.555836 264.697679 
L 183.990647 264.536457 
L 181.687477 258.324877 
L 182.69808 259.71655 
L 183.273872 261.269445 
L 182.404251 261.591889 
" clip-path="url(#p83c9f54ad0)" style="fill: none; stroke: #ff0000; stroke-width: 1.5; stroke-linecap: square"/>
   </g>
   <g id="line2d_33">
    <path d="M 201.790221 186.355512 
L 202.418335 187.037922 
L 206.074104 183.673025 
L 206.978637 182.210188 
L 205.44599 182.990615 
L 201.790221 186.355512 
L 202.104278 186.696717 
L 206.978637 182.210188 
L 206.074104 183.673025 
L 204.855514 184.794657 
L 204.2274 184.112247 
" clip-path="url(#p83c9f54ad0)" style="fill: none; stroke: #ff0000; stroke-width: 1.5; stroke-linecap: square"/>
   </g>
   <g id="line2d_34">
    <path d="M 272.282957 160.853994 
L 272.973758 161.472868 
L 276.289154 157.772148 
L 277.048886 156.229138 
L 275.598353 157.153274 
L 272.282957 160.853994 
L 272.628358 161.163431 
L 277.048886 156.229138 
L 276.289154 157.772148 
L 275.184022 159.005721 
L 274.493221 158.386847 
" clip-path="url(#p83c9f54ad0)" style="fill: none; stroke: #ff0000; stroke-width: 1.5; stroke-linecap: square"/>
   </g>
   <g id="line2d_35">
    <path d="M 287.178429 87.474689 
L 287.90955 86.904012 
L 284.852351 82.98729 
L 283.467724 81.967054 
L 284.12123 83.557967 
L 287.178429 87.474689 
L 287.543989 87.18935 
L 283.467724 81.967054 
L 284.852351 82.98729 
L 285.871417 84.292864 
L 285.140296 84.863541 
" clip-path="url(#p83c9f54ad0)" style="fill: none; stroke: #ff0000; stroke-width: 1.5; stroke-linecap: square"/>
   </g>
   <g id="line2d_36">
    <path d="M 221.911576 59.22591 
L 221.61993 58.345482 
L 216.903351 59.907871 
L 215.476981 60.868882 
L 217.194997 60.788299 
L 221.911576 59.22591 
L 221.765753 58.785696 
L 215.476981 60.868882 
L 216.903351 59.907871 
L 218.475544 59.387075 
L 218.76719 60.267503 
" clip-path="url(#p83c9f54ad0)" style="fill: none; stroke: #ff0000; stroke-width: 1.5; stroke-linecap: square"/>
   </g>
   <g id="line2d_37">
    <path d="M 177.440313 115.501424 
L 176.513579 115.538508 
L 176.712241 120.503154 
L 177.241829 122.139494 
L 177.638975 120.46607 
L 177.440313 115.501424 
L 176.976946 115.519966 
L 177.241829 122.139494 
L 176.712241 120.503154 
L 176.64602 118.848272 
L 177.572754 118.811188 
" clip-path="url(#p83c9f54ad0)" style="fill: none; stroke: #ff0000; stroke-width: 1.5; stroke-linecap: square"/>
   </g>
   <g id="patch_3">
    <path d="M 57.6 307.584 
L 57.6 41.472 
" style="fill: none; stroke: #000000; stroke-width: 0.8; stroke-linejoin: miter; stroke-linecap: square"/>
   </g>
   <g id="patch_4">
    <path d="M 414.72 307.584 
L 414.72 41.472 
" style="fill: none; stroke: #000000; stroke-width: 0.8; stroke-linejoin: miter; stroke-linecap: square"/>
   </g>
   <g id="patch_5">
    <path d="M 57.6 307.584 
L 414.72 307.584 
" style="fill: none; stroke: #000000; stroke-width: 0.8; stroke-linejoin: miter; stroke-linecap: square"/>
   </g>
   <g id="patch_6">
    <path d="M 57.6 41.472 
L 414.72 41.472 
" style="fill: none; stroke: #000000; stroke-width: 0.8; stroke-linejoin: miter; stroke-linecap: square"/>
   </g>
   <g id="text_16">
    <!-- V_w=3 \beta_w=0 -->
    <g transform="translate(181.093125 35.472) scale(0.12 -0.12)">
     <defs>
      <path id="DejaVuSans-56" d="M 1831 0 
L 50 4666 
L 709 4666 
L 2188 738 
L 3669 4666 
L 4325 4666 
L 2547 0 
L 1831 0 
z
" transform="scale(0.015625)"/>
      <path id="DejaVuSans-5f" d="M 3263 -1063 
L 3263 -1509 
L -63 -1509 
L -63 -1063 
L 3263 -1063 
z
" transform="scale(0.015625)"/>
      <path id="DejaVuSans-77" d="M 269 3500 
L 844 3500 
L 1563 769 
L 2278 3500 
L 2956 3500 
L 3675 769 
L 4391 3500 
L 4966 3500 
L 4050 0 
L 3372 0 
L 2619 2869 
L 1863 0 
L 1184 0 
L 269 3500 
z
" transform="scale(0.015625)"/>
      <path id="DejaVuSans-3d" d="M 678 2906 
L 4684 2906 
L 4684 2381 
L 678 2381 
L 678 2906 
z
M 678 1631 
L 4684 1631 
L 4684 1100 
L 678 1100 
L 678 1631 
z
" transform="scale(0.015625)"/>
      <path id="DejaVuSans-33" d="M 2597 2516 
Q 3050 2419 3304 2112 
Q 3559 1806 3559 1356 
Q 3559 666 3084 287 
Q 2609 -91 1734 -91 
Q 1441 -91 1130 -33 
Q 819 25 488 141 
L 488 750 
Q 750 597 1062 519 
Q 1375 441 1716 441 
Q 2309 441 2620 675 
Q 2931 909 2931 1356 
Q 2931 1769 2642 2001 
Q 2353 2234 1838 2234 
L 1294 2234 
L 1294 2753 
L 1863 2753 
Q 2328 2753 2575 2939 
Q 2822 3125 2822 3475 
Q 2822 3834 2567 4026 
Q 2313 4219 1838 4219 
Q 1578 4219 1281 4162 
Q 984 4106 628 3988 
L 628 4550 
Q 988 4650 1302 4700 
Q 1616 4750 1894 4750 
Q 2613 4750 3031 4423 
Q 3450 4097 3450 3541 
Q 3450 3153 3228 2886 
Q 3006 2619 2597 2516 
z
" transform="scale(0.015625)"/>
      <path id="DejaVuSans-20" transform="scale(0.015625)"/>
      <path id="DejaVuSans-5c" d="M 531 4666 
L 2156 -594 
L 1625 -594 
L 0 4666 
L 531 4666 
z
" transform="scale(0.015625)"/>
      <path id="DejaVuSans-62" d="M 3116 1747 
Q 3116 2381 2855 2742 
Q 2594 3103 2138 3103 
Q 1681 3103 1420 2742 
Q 1159 2381 1159 1747 
Q 1159 1113 1420 752 
Q 1681 391 2138 391 
Q 2594 391 2855 752 
Q 3116 1113 3116 1747 
z
M 1159 2969 
Q 1341 3281 1617 3432 
Q 1894 3584 2278 3584 
Q 2916 3584 3314 3078 
Q 3713 2572 3713 1747 
Q 3713 922 3314 415 
Q 2916 -91 2278 -91 
Q 1894 -91 1617 61 
Q 1341 213 1159 525 
L 1159 0 
L 581 0 
L 581 4863 
L 1159 4863 
L 1159 2969 
z
" transform="scale(0.015625)"/>
      <path id="DejaVuSans-65" d="M 3597 1894 
L 3597 1613 
L 953 1613 
Q 991 1019 1311 708 
Q 1631 397 2203 397 
Q 2534 397 2845 478 
Q 3156 559 3463 722 
L 3463 178 
Q 3153 47 2828 -22 
Q 2503 -91 2169 -91 
Q 1331 -91 842 396 
Q 353 884 353 1716 
Q 353 2575 817 3079 
Q 1281 3584 2069 3584 
Q 2775 3584 3186 3129 
Q 3597 2675 3597 1894 
z
M 3022 2063 
Q 3016 2534 2758 2815 
Q 2500 3097 2075 3097 
Q 1594 3097 1305 2825 
Q 1016 2553 972 2059 
L 3022 2063 
z
" transform="scale(0.015625)"/>
      <path id="DejaVuSans-74" d="M 1172 4494 
L 1172 3500 
L 2356 3500 
L 2356 3053 
L 1172 3053 
L 1172 1153 
Q 1172 725 1289 603 
Q 1406 481 1766 481 
L 2356 481 
L 2356 0 
L 1766 0 
Q 1100 0 847 248 
Q 594 497 594 1153 
L 594 3053 
L 172 3053 
L 172 3500 
L 594 3500 
L 594 4494 
L 1172 4494 
z
" transform="scale(0.015625)"/>
      <path id="DejaVuSans-61" d="M 2194 1759 
Q 1497 1759 1228 1600 
Q 959 1441 959 1056 
Q 959 750 1161 570 
Q 1363 391 1709 391 
Q 2188 391 2477 730 
Q 2766 1069 2766 1631 
L 2766 1759 
L 2194 1759 
z
M 3341 1997 
L 3341 0 
L 2766 0 
L 2766 531 
Q 2569 213 2275 61 
Q 1981 -91 1556 -91 
Q 1019 -91 701 211 
Q 384 513 384 1019 
Q 384 1609 779 1909 
Q 1175 2209 1959 2209 
L 2766 2209 
L 2766 2266 
Q 2766 2663 2505 2880 
Q 2244 3097 1772 3097 
Q 1472 3097 1187 3025 
Q 903 2953 641 2809 
L 641 3341 
Q 956 3463 1253 3523 
Q 1550 3584 1831 3584 
Q 2591 3584 2966 3190 
Q 3341 2797 3341 1997 
z
" transform="scale(0.015625)"/>
     </defs>
     <use xlink:href="#DejaVuSans-56"/>
     <use xlink:href="#DejaVuSans-5f" x="68.408203"/>
     <use xlink:href="#DejaVuSans-77" x="118.408203"/>
     <use xlink:href="#DejaVuSans-3d" x="200.195312"/>
     <use xlink:href="#DejaVuSans-33" x="283.984375"/>
     <use xlink:href="#DejaVuSans-20" x="347.607422"/>
     <use xlink:href="#DejaVuSans-5c" x="379.394531"/>
     <use xlink:href="#DejaVuSans-62" x="413.085938"/>
     <use xlink:href="#DejaVuSans-65" x="476.5625"/>
     <use xlink:href="#DejaVuSans-74" x="538.085938"/>
     <use xlink:href="#DejaVuSans-61" x="577.294922"/>
     <use xlink:href="#DejaVuSans-5f" x="638.574219"/>
     <use xlink:href="#DejaVuSans-77" x="688.574219"/>
     <use xlink:href="#DejaVuSans-3d" x="770.361328"/>
     <use xlink:href="#DejaVuSans-30" x="854.150391"/>
    </g>
   </g>
   <g id="legend_1">
    <g id="patch_7">
     <path d="M 64.6 302.584 
L 175.276563 302.584 
Q 177.276563 302.584 177.276563 300.584 
L 177.276563 257.549625 
Q 177.276563 255.549625 175.276563 255.549625 
L 64.6 255.549625 
Q 62.6 255.549625 62.6 257.549625 
L 62.6 300.584 
Q 62.6 302.584 64.6 302.584 
z
" style="fill: #ffffff; opacity: 0.8; stroke: #cccccc; stroke-linejoin: miter"/>
    </g>
    <g id="line2d_38">
     <path d="M 66.6 263.648062 
L 76.6 263.648062 
L 86.6 263.648062 
" style="fill: none; stroke: #1f77b4; stroke-width: 1.5; stroke-linecap: square"/>
    </g>
    <g id="text_17">
     <!-- Path Followed -->
     <g transform="translate(94.6 267.148062) scale(0.1 -0.1)">
      <defs>
       <path id="DejaVuSans-50" d="M 1259 4147 
L 1259 2394 
L 2053 2394 
Q 2494 2394 2734 2622 
Q 2975 2850 2975 3272 
Q 2975 3691 2734 3919 
Q 2494 4147 2053 4147 
L 1259 4147 
z
M 628 4666 
L 2053 4666 
Q 2838 4666 3239 4311 
Q 3641 3956 3641 3272 
Q 3641 2581 3239 2228 
Q 2838 1875 2053 1875 
L 1259 1875 
L 1259 0 
L 628 0 
L 628 4666 
z
" transform="scale(0.015625)"/>
       <path id="DejaVuSans-68" d="M 3513 2113 
L 3513 0 
L 2938 0 
L 2938 2094 
Q 2938 2591 2744 2837 
Q 2550 3084 2163 3084 
Q 1697 3084 1428 2787 
Q 1159 2491 1159 1978 
L 1159 0 
L 581 0 
L 581 4863 
L 1159 4863 
L 1159 2956 
Q 1366 3272 1645 3428 
Q 1925 3584 2291 3584 
Q 2894 3584 3203 3211 
Q 3513 2838 3513 2113 
z
" transform="scale(0.015625)"/>
       <path id="DejaVuSans-46" d="M 628 4666 
L 3309 4666 
L 3309 4134 
L 1259 4134 
L 1259 2759 
L 3109 2759 
L 3109 2228 
L 1259 2228 
L 1259 0 
L 628 0 
L 628 4666 
z
" transform="scale(0.015625)"/>
       <path id="DejaVuSans-6f" d="M 1959 3097 
Q 1497 3097 1228 2736 
Q 959 2375 959 1747 
Q 959 1119 1226 758 
Q 1494 397 1959 397 
Q 2419 397 2687 759 
Q 2956 1122 2956 1747 
Q 2956 2369 2687 2733 
Q 2419 3097 1959 3097 
z
M 1959 3584 
Q 2709 3584 3137 3096 
Q 3566 2609 3566 1747 
Q 3566 888 3137 398 
Q 2709 -91 1959 -91 
Q 1206 -91 779 398 
Q 353 888 353 1747 
Q 353 2609 779 3096 
Q 1206 3584 1959 3584 
z
" transform="scale(0.015625)"/>
       <path id="DejaVuSans-6c" d="M 603 4863 
L 1178 4863 
L 1178 0 
L 603 0 
L 603 4863 
z
" transform="scale(0.015625)"/>
       <path id="DejaVuSans-64" d="M 2906 2969 
L 2906 4863 
L 3481 4863 
L 3481 0 
L 2906 0 
L 2906 525 
Q 2725 213 2448 61 
Q 2172 -91 1784 -91 
Q 1150 -91 751 415 
Q 353 922 353 1747 
Q 353 2572 751 3078 
Q 1150 3584 1784 3584 
Q 2172 3584 2448 3432 
Q 2725 3281 2906 2969 
z
M 947 1747 
Q 947 1113 1208 752 
Q 1469 391 1925 391 
Q 2381 391 2643 752 
Q 2906 1113 2906 1747 
Q 2906 2381 2643 2742 
Q 2381 3103 1925 3103 
Q 1469 3103 1208 2742 
Q 947 2381 947 1747 
z
" transform="scale(0.015625)"/>
      </defs>
      <use xlink:href="#DejaVuSans-50"/>
      <use xlink:href="#DejaVuSans-61" x="55.802734"/>
      <use xlink:href="#DejaVuSans-74" x="117.082031"/>
      <use xlink:href="#DejaVuSans-68" x="156.291016"/>
      <use xlink:href="#DejaVuSans-20" x="219.669922"/>
      <use xlink:href="#DejaVuSans-46" x="251.457031"/>
      <use xlink:href="#DejaVuSans-6f" x="305.351562"/>
      <use xlink:href="#DejaVuSans-6c" x="366.533203"/>
      <use xlink:href="#DejaVuSans-6c" x="394.316406"/>
      <use xlink:href="#DejaVuSans-6f" x="422.099609"/>
      <use xlink:href="#DejaVuSans-77" x="483.28125"/>
      <use xlink:href="#DejaVuSans-65" x="565.068359"/>
      <use xlink:href="#DejaVuSans-64" x="626.591797"/>
     </g>
    </g>
    <g id="line2d_39">
     <g>
      <use xlink:href="#md1aef9c879" x="76.6" y="278.326188" style="fill: #ff0000; stroke: #ff0000"/>
     </g>
    </g>
    <g id="text_18">
     <!-- Start Waypoint -->
     <g transform="translate(94.6 281.826188) scale(0.1 -0.1)">
      <defs>
       <path id="DejaVuSans-53" d="M 3425 4513 
L 3425 3897 
Q 3066 4069 2747 4153 
Q 2428 4238 2131 4238 
Q 1616 4238 1336 4038 
Q 1056 3838 1056 3469 
Q 1056 3159 1242 3001 
Q 1428 2844 1947 2747 
L 2328 2669 
Q 3034 2534 3370 2195 
Q 3706 1856 3706 1288 
Q 3706 609 3251 259 
Q 2797 -91 1919 -91 
Q 1588 -91 1214 -16 
Q 841 59 441 206 
L 441 856 
Q 825 641 1194 531 
Q 1563 422 1919 422 
Q 2459 422 2753 634 
Q 3047 847 3047 1241 
Q 3047 1584 2836 1778 
Q 2625 1972 2144 2069 
L 1759 2144 
Q 1053 2284 737 2584 
Q 422 2884 422 3419 
Q 422 4038 858 4394 
Q 1294 4750 2059 4750 
Q 2388 4750 2728 4690 
Q 3069 4631 3425 4513 
z
" transform="scale(0.015625)"/>
       <path id="DejaVuSans-72" d="M 2631 2963 
Q 2534 3019 2420 3045 
Q 2306 3072 2169 3072 
Q 1681 3072 1420 2755 
Q 1159 2438 1159 1844 
L 1159 0 
L 581 0 
L 581 3500 
L 1159 3500 
L 1159 2956 
Q 1341 3275 1631 3429 
Q 1922 3584 2338 3584 
Q 2397 3584 2469 3576 
Q 2541 3569 2628 3553 
L 2631 2963 
z
" transform="scale(0.015625)"/>
       <path id="DejaVuSans-57" d="M 213 4666 
L 850 4666 
L 1831 722 
L 2809 4666 
L 3519 4666 
L 4500 722 
L 5478 4666 
L 6119 4666 
L 4947 0 
L 4153 0 
L 3169 4050 
L 2175 0 
L 1381 0 
L 213 4666 
z
" transform="scale(0.015625)"/>
       <path id="DejaVuSans-79" d="M 2059 -325 
Q 1816 -950 1584 -1140 
Q 1353 -1331 966 -1331 
L 506 -1331 
L 506 -850 
L 844 -850 
Q 1081 -850 1212 -737 
Q 1344 -625 1503 -206 
L 1606 56 
L 191 3500 
L 800 3500 
L 1894 763 
L 2988 3500 
L 3597 3500 
L 2059 -325 
z
" transform="scale(0.015625)"/>
       <path id="DejaVuSans-70" d="M 1159 525 
L 1159 -1331 
L 581 -1331 
L 581 3500 
L 1159 3500 
L 1159 2969 
Q 1341 3281 1617 3432 
Q 1894 3584 2278 3584 
Q 2916 3584 3314 3078 
Q 3713 2572 3713 1747 
Q 3713 922 3314 415 
Q 2916 -91 2278 -91 
Q 1894 -91 1617 61 
Q 1341 213 1159 525 
z
M 3116 1747 
Q 3116 2381 2855 2742 
Q 2594 3103 2138 3103 
Q 1681 3103 1420 2742 
Q 1159 2381 1159 1747 
Q 1159 1113 1420 752 
Q 1681 391 2138 391 
Q 2594 391 2855 752 
Q 3116 1113 3116 1747 
z
" transform="scale(0.015625)"/>
       <path id="DejaVuSans-69" d="M 603 3500 
L 1178 3500 
L 1178 0 
L 603 0 
L 603 3500 
z
M 603 4863 
L 1178 4863 
L 1178 4134 
L 603 4134 
L 603 4863 
z
" transform="scale(0.015625)"/>
       <path id="DejaVuSans-6e" d="M 3513 2113 
L 3513 0 
L 2938 0 
L 2938 2094 
Q 2938 2591 2744 2837 
Q 2550 3084 2163 3084 
Q 1697 3084 1428 2787 
Q 1159 2491 1159 1978 
L 1159 0 
L 581 0 
L 581 3500 
L 1159 3500 
L 1159 2956 
Q 1366 3272 1645 3428 
Q 1925 3584 2291 3584 
Q 2894 3584 3203 3211 
Q 3513 2838 3513 2113 
z
" transform="scale(0.015625)"/>
      </defs>
      <use xlink:href="#DejaVuSans-53"/>
      <use xlink:href="#DejaVuSans-74" x="63.476562"/>
      <use xlink:href="#DejaVuSans-61" x="102.685547"/>
      <use xlink:href="#DejaVuSans-72" x="163.964844"/>
      <use xlink:href="#DejaVuSans-74" x="205.078125"/>
      <use xlink:href="#DejaVuSans-20" x="244.287109"/>
      <use xlink:href="#DejaVuSans-57" x="276.074219"/>
      <use xlink:href="#DejaVuSans-61" x="368.576172"/>
      <use xlink:href="#DejaVuSans-79" x="429.855469"/>
      <use xlink:href="#DejaVuSans-70" x="489.035156"/>
      <use xlink:href="#DejaVuSans-6f" x="552.511719"/>
      <use xlink:href="#DejaVuSans-69" x="613.693359"/>
      <use xlink:href="#DejaVuSans-6e" x="641.476562"/>
      <use xlink:href="#DejaVuSans-74" x="704.855469"/>
     </g>
    </g>
    <g id="line2d_40">
     <path d="M 66.6 293.004312 
L 76.6 293.004312 
L 86.6 293.004312 
" style="fill: none; stroke: #ff7f0e; stroke-width: 1.5; stroke-linecap: square"/>
    </g>
    <g id="text_19">
     <!-- Predefined Path -->
     <g transform="translate(94.6 296.504312) scale(0.1 -0.1)">
      <defs>
       <path id="DejaVuSans-66" d="M 2375 4863 
L 2375 4384 
L 1825 4384 
Q 1516 4384 1395 4259 
Q 1275 4134 1275 3809 
L 1275 3500 
L 2222 3500 
L 2222 3053 
L 1275 3053 
L 1275 0 
L 697 0 
L 697 3053 
L 147 3053 
L 147 3500 
L 697 3500 
L 697 3744 
Q 697 4328 969 4595 
Q 1241 4863 1831 4863 
L 2375 4863 
z
" transform="scale(0.015625)"/>
      </defs>
      <use xlink:href="#DejaVuSans-50"/>
      <use xlink:href="#DejaVuSans-72" x="58.552734"/>
      <use xlink:href="#DejaVuSans-65" x="97.416016"/>
      <use xlink:href="#DejaVuSans-64" x="158.939453"/>
      <use xlink:href="#DejaVuSans-65" x="222.416016"/>
      <use xlink:href="#DejaVuSans-66" x="283.939453"/>
      <use xlink:href="#DejaVuSans-69" x="319.144531"/>
      <use xlink:href="#DejaVuSans-6e" x="346.927734"/>
      <use xlink:href="#DejaVuSans-65" x="410.306641"/>
      <use xlink:href="#DejaVuSans-64" x="471.830078"/>
      <use xlink:href="#DejaVuSans-20" x="535.306641"/>
      <use xlink:href="#DejaVuSans-50" x="567.09375"/>
      <use xlink:href="#DejaVuSans-61" x="622.896484"/>
      <use xlink:href="#DejaVuSans-74" x="684.175781"/>
      <use xlink:href="#DejaVuSans-68" x="723.384766"/>
     </g>
    </g>
   </g>
  </g>
 </g>
 <defs>
  <clipPath id="p83c9f54ad0">
   <rect x="57.6" y="41.472" width="357.12" height="266.112"/>
  </clipPath>
 </defs>
</svg>
